<?xml version="1.0" standalone="no"?>
<!DOCTYPE svg PUBLIC "-//W3C//DTD SVG 20010904//EN"
 "http://www.w3.org/TR/2001/REC-SVG-20010904/DTD/svg10.dtd">
<svg version="1.0" xmlns="http://www.w3.org/2000/svg"
 width="1081.000000pt" height="1081.000000pt" viewBox="0 0 1081.000000 1081.000000"
 preserveAspectRatio="xMidYMid meet">
<metadata>
Created by potrace 1.14, written by Peter Selinger 2001-2017
</metadata>
<g transform="translate(0.000000,1081.000000) scale(0.100000,-0.100000)"
fill="#000000" stroke="none">
<path d="M1838 10799 c-939 -73 -1711 -820 -1818 -1759 -8 -67 -10 -1157 -8
-3700 l3 -3605 28 -125 c94 -423 278 -755 578 -1045 277 -267 591 -433 989
-522 l125 -28 3605 -3 c2543 -2 3633 0 3700 8 852 97 1555 742 1725 1583 14
68 30 191 35 273 8 102 10 1247 8 3634 -3 3293 -4 3491 -21 3590 -77 448 -263
816 -567 1120 -304 304 -672 490 -1120 567 -99 17 -294 18 -3630 19 -1939 1
-3573 -2 -3632 -7z m3795 -2432 c456 -120 804 -492 893 -954 23 -116 23 -329
1 -443 -90 -466 -437 -837 -894 -957 -133 -34 -374 -43 -508 -19 -444 82 -809
397 -944 814 -45 139 -56 214 -56 382 0 168 11 243 56 382 116 358 419 659
778 772 147 46 220 56 406 52 143 -3 186 -8 268 -29z m-2005 -3037 c218 -17
456 -82 659 -181 178 -86 272 -203 281 -349 6 -98 -11 -146 -72 -206 -75 -75
-141 -98 -281 -98 -94 0 -131 5 -250 36 -250 65 -449 98 -584 98 -177 0 -273
-115 -185 -220 34 -40 149 -94 374 -175 445 -161 584 -233 747 -389 127 -120
198 -246 229 -404 18 -94 18 -148 -1 -257 -75 -431 -444 -728 -963 -776 -270
-24 -614 45 -891 179 -234 113 -345 330 -256 501 23 45 98 107 161 132 87 34
232 33 371 -4 260 -69 483 -107 628 -107 79 0 96 4 140 28 32 17 57 40 69 63
19 35 19 38 2 83 -30 79 -79 105 -459 241 -506 183 -745 352 -865 613 -135
291 -41 667 226 913 169 154 424 259 682 278 58 5 107 9 110 9 3 1 60 -3 128
-8z m1851 -143 c79 -39 139 -109 164 -187 16 -51 17 -138 15 -1150 -3 -1089
-3 -1095 -24 -1141 -43 -92 -117 -155 -219 -185 -144 -41 -308 34 -377 174
l-23 47 -3 1110 c-3 1248 -8 1163 74 1254 55 61 94 86 165 106 76 21 150 12
228 -28z m983 19 c21 -8 54 -24 74 -37 19 -13 179 -196 356 -407 306 -364 323
-382 339 -365 9 10 153 180 318 378 305 365 353 413 434 437 156 45 318 -26
389 -169 28 -58 33 -77 33 -143 -1 -59 -6 -87 -26 -130 -18 -37 -139 -190
-377 -473 -194 -230 -352 -423 -352 -428 0 -5 158 -197 351 -426 236 -280 360
-436 377 -473 21 -44 26 -70 26 -130 0 -131 -64 -234 -182 -292 -57 -28 -76
-33 -142 -33 -90 1 -167 31 -226 92 -22 21 -174 200 -339 397 -280 334 -301
356 -315 339 -8 -10 -156 -186 -327 -390 -305 -363 -314 -372 -380 -405 -58
-28 -77 -33 -143 -33 -134 0 -241 70 -299 195 -36 78 -36 183 1 260 17 37 142
193 377 472 193 230 351 422 351 427 0 6 -158 199 -351 428 -237 282 -360 436
-378 473 -36 78 -36 182 1 261 73 159 244 232 410 175z"/>
</g>
</svg>
