<svg xmlns="http://www.w3.org/2000/svg" xmlns:xlink="http://www.w3.org/1999/xlink" width="61.32" height="50" viewBox="0 0 61.32 50">
  <defs>
    <clipPath id="clip-path">
      <rect id="Rectangle_868" data-name="Rectangle 868" width="42.857" height="42.857" fill="none"/>
    </clipPath>
    <clipPath id="clip-path-2">
      <rect id="Rectangle_865" data-name="Rectangle 865" width="36.926" height="28.571" fill="none"/>
    </clipPath>
  </defs>
  <g id="Groupe_678" data-name="Groupe 678" transform="translate(-245 -495)">
    <g id="Groupe_659" data-name="Groupe 659" transform="translate(245 495)">
      <g id="Groupe_658" data-name="Groupe 658" clip-path="url(#clip-path)">
        <path id="Tracé_203" data-name="Tracé 203" d="M42.829,20.325c-.018-.364-.046-.725-.082-1.086a21.521,21.521,0,0,0-.564-3.168c-.086-.339-.182-.679-.289-1.011v0A21.47,21.47,0,0,0,27.8.964h0c-.332-.107-.671-.2-1.011-.289A21.521,21.521,0,0,0,23.618.111C23.257.075,22.9.046,22.532.029S21.8,0,21.429,0s-.739.011-1.1.029S19.6.075,19.239.111a21.605,21.605,0,0,0-3.168.564q-.509.134-1.007.289s0,0-.007,0A21.47,21.47,0,0,0,.964,15.057v0c-.1.332-.2.671-.289,1.011a21.521,21.521,0,0,0-.564,3.168c-.036.361-.064.721-.082,1.086S0,21.057,0,21.429s.011.739.029,1.1.046.725.082,1.086a21.605,21.605,0,0,0,.564,3.168q.134.509.289,1.007s0,0,0,.007a21.433,21.433,0,0,0,40.929,0s0,0,0-.007q.161-.5.289-1.007a21.6,21.6,0,0,0,.564-3.168c.036-.361.064-.721.082-1.086s.029-.732.029-1.1-.011-.739-.029-1.1M20.239,40.675H20.2A19.079,19.079,0,0,1,8.179,35.257q-.15-.145-.289-.289a19.1,19.1,0,0,1-5.7-12.293l-.021-.343c-.007-.136-.011-.271-.014-.407-.006-.186,0-.372-.006-.558A19.307,19.307,0,0,1,21.429,2.143c.332,0,.664.007.993.025.132.007.268.014.4.025.089.007.182.018.271.025A19.061,19.061,0,0,1,34.682,7.6c.1.093.193.189.289.286a19.081,19.081,0,0,1,5.664,11.825c.007.1.018.211.025.314.014.136.021.275.029.411.018.329.025.661.025.993A19.308,19.308,0,0,1,21.429,40.714c-.3,0-.6-.007-.893-.021-.1,0-.2-.011-.3-.018" fill="#1cc1e6"/>
        <path id="Tracé_204" data-name="Tracé 204" d="M42.829,20.325c-.018-.364-.046-.725-.082-1.086a21.521,21.521,0,0,0-.564-3.168c-.089-.339-.186-.679-.289-1.011v0A21.543,21.543,0,0,0,27.8.964h0c-.332-.1-.671-.2-1.011-.289A21.521,21.521,0,0,0,23.618.111C23.257.075,22.9.046,22.532.029S21.8,0,21.429,0s-.739.011-1.1.029S19.6.075,19.239.111a21.605,21.605,0,0,0-3.168.564q-.509.134-1.007.289s0,0-.007,0A21.543,21.543,0,0,0,.964,15.057v0c-.1.332-.2.671-.289,1.011a21.521,21.521,0,0,0-.564,3.168c-.036.361-.064.721-.082,1.086S0,21.057,0,21.429s.011.739.029,1.1.046.725.082,1.086a21.605,21.605,0,0,0,.564,3.168q.134.509.289,1.007s0,0,0,.007a21.433,21.433,0,0,0,40.929,0s0,0,0-.007q.155-.5.289-1.007a21.6,21.6,0,0,0,.564-3.168c.036-.361.064-.721.082-1.086s.029-.732.029-1.1-.011-.739-.029-1.1M20.239,40.675H20.2a19.31,19.31,0,0,1-18.018-18q-.016-.171-.021-.343c-.007-.136-.011-.271-.014-.407-.006-.186,0-.372-.006-.558A19.307,19.307,0,0,1,21.429,2.143c.332,0,.664.007.993.025.132.007.268.014.4.025.089.007.182.018.271.025A19.3,19.3,0,0,1,40.636,19.711c.007.1.018.211.025.314.014.136.021.275.029.411.018.329.025.661.025.993A19.308,19.308,0,0,1,21.429,40.714c-.3,0-.6-.007-.893-.021-.1,0-.2-.007-.3-.018" fill="#1cc1e6"/>
      </g>
    </g>
    <g id="Groupe_653" data-name="Groupe 653" transform="translate(269.395 516.429)">
      <g id="Groupe_652" data-name="Groupe 652" clip-path="url(#clip-path-2)">
        <path id="Tracé_197" data-name="Tracé 197" d="M38.658,18.512c-.174.759-.3,1.532-.531,2.271a8.408,8.408,0,0,1-2.079,3.376c-.985,1-1.971,2.007-2.994,2.972A8.978,8.978,0,0,1,26.7,29.609q-7.789.021-15.579,0a2.569,2.569,0,0,1-2.569-3.374,3.812,3.812,0,0,1,3.309-2.891c2.054-.308,4.106-.636,6.158-.956.114-.019.225-.049.379-.083-.122-.13-.216-.234-.316-.334Q12.639,16.53,7.193,11.087A3.617,3.617,0,0,1,6.076,8.852a3.269,3.269,0,0,1,2.73-3.4,3.33,3.33,0,0,1,2.871,1.026c.846.854,1.7,1.7,2.549,2.551.084.083.172.161.289.271a3.257,3.257,0,0,1,5.024-1.639,3.259,3.259,0,0,1,5.036-1.678,3.5,3.5,0,0,1,1.06-1.57,3.158,3.158,0,0,1,4.343.239q3.3,3.555,6.515,7.185a8.694,8.694,0,0,1,2.094,4.816c.014.116.047.229.071.345ZM19.273,27.931c2.428,0,4.856-.006,7.284,0a7.509,7.509,0,0,0,5.435-2.1c1-.965,2.01-1.936,2.951-2.964a7.492,7.492,0,0,0,.033-10.245c-.808-.906-1.632-1.8-2.449-2.7Q30.683,7.9,28.837,5.877a1.529,1.529,0,1,0-2.306,2.009,2.886,2.886,0,0,1,.241.314.765.765,0,0,1,0,.851.7.7,0,0,1-.754.38,1.424,1.424,0,0,1-.649-.335c-.546-.507-1.059-1.048-1.589-1.573A1.53,1.53,0,1,0,21.528,9.6c.539.6,1.136,1.142,1.7,1.72A.842.842,0,1,1,22.044,12.5c-.236-.222-.46-.457-.69-.687-.867-.866-1.728-1.739-2.6-2.6A1.535,1.535,0,1,0,16.6,11.4c1.048,1.06,2.108,2.109,3.159,3.164a2.018,2.018,0,0,1,.317.389.753.753,0,0,1-.059.878.7.7,0,0,1-.816.306,1.806,1.806,0,0,1-.649-.417q-3.989-3.967-7.961-7.951a3.91,3.91,0,0,0-.4-.364A1.521,1.521,0,0,0,7.768,8.413a1.681,1.681,0,0,0,.594,1.472q6.138,6.128,12.27,12.26a.949.949,0,0,1,.351.992.908.908,0,0,1-.846.619q-1.692.26-3.381.527c-1.661.263-3.324.51-4.979.8a1.992,1.992,0,0,0-1.642,1.854.828.828,0,0,0,.773.975,3.342,3.342,0,0,0,.431.019h7.934" transform="translate(-1.732 -1.047)" fill="#fff"/>
        <path id="Tracé_198" data-name="Tracé 198" d="M7.382.005a7.654,7.654,0,0,1,7,4.383.846.846,0,0,1-.348,1.175.809.809,0,0,1-1.125-.4A6.725,6.725,0,0,0,11,2.849a5.855,5.855,0,1,0-6.2,9.894c.116.063.235.121.346.192a.838.838,0,1,1-.8,1.47,7.415,7.415,0,0,1-2.931-2.439A7.542,7.542,0,0,1,6.026.181c.445-.094.9-.119,1.356-.176" transform="translate(0 0)" fill="#fff"/>
      </g>
    </g>
  </g>
</svg>
