<svg id="Groupe_432" data-name="Groupe 432" xmlns="http://www.w3.org/2000/svg" xmlns:xlink="http://www.w3.org/1999/xlink" width="60" height="60" viewBox="0 0 60 60">
  <defs>
    <clipPath id="clip-path">
      <rect id="Rectangle_736" data-name="Rectangle 736" width="60" height="60" fill="none"/>
    </clipPath>
    <clipPath id="clip-path-3">
      <rect id="Rectangle_732" data-name="Rectangle 732" width="60" height="52.4" fill="none"/>
    </clipPath>
    <clipPath id="clip-path-4">
      <rect id="Rectangle_733" data-name="Rectangle 733" width="20" height="20" transform="translate(20 10.003)" fill="none"/>
    </clipPath>
    <clipPath id="clip-path-5">
      <rect id="Rectangle_734" data-name="Rectangle 734" width="39.88" height="26.21" transform="translate(10.06 33.79)" fill="none"/>
    </clipPath>
  </defs>
  <g id="Groupe_431" data-name="Groupe 431" clip-path="url(#clip-path)">
    <g id="Groupe_430" data-name="Groupe 430">
      <g id="Groupe_429" data-name="Groupe 429" clip-path="url(#clip-path)">
        <g id="Groupe_422" data-name="Groupe 422" opacity="0.997" style="mix-blend-mode: normal;isolation: isolate">
          <g id="Groupe_421" data-name="Groupe 421">
            <g id="Groupe_420" data-name="Groupe 420" clip-path="url(#clip-path-3)">
              <path id="Tracé_97" data-name="Tracé 97" d="M60,30A29.885,29.885,0,0,1,49.94,52.4a19.988,19.988,0,0,0-39.88,0A30,30,0,1,1,60,30" fill="#8b86fe"/>
            </g>
          </g>
        </g>
        <g id="Groupe_425" data-name="Groupe 425" opacity="0.997" style="mix-blend-mode: normal;isolation: isolate">
          <g id="Groupe_424" data-name="Groupe 424">
            <g id="Groupe_423" data-name="Groupe 423" clip-path="url(#clip-path-4)">
              <path id="Tracé_98" data-name="Tracé 98" d="M40,20A10,10,0,1,1,30,10,10,10,0,0,1,40,20" fill="#fff"/>
            </g>
          </g>
        </g>
        <g id="Groupe_428" data-name="Groupe 428" opacity="0.997" style="mix-blend-mode: normal;isolation: isolate">
          <g id="Groupe_427" data-name="Groupe 427">
            <g id="Groupe_426" data-name="Groupe 426" clip-path="url(#clip-path-5)">
              <path id="Tracé_99" data-name="Tracé 99" d="M49.94,52.4a29.958,29.958,0,0,1-39.88,0,19.987,19.987,0,0,1,39.88,0" fill="#fff"/>
            </g>
          </g>
        </g>
      </g>
    </g>
  </g>
</svg>
