<svg id="Groupe_608" data-name="Groupe 608" xmlns="http://www.w3.org/2000/svg" xmlns:xlink="http://www.w3.org/1999/xlink" width="33" height="33" viewBox="0 0 33 33">
  <defs>
    <clipPath id="clip-path">
      <rect id="Rectangle_825" data-name="Rectangle 825" width="33" height="33" fill="#8d88ff"/>
    </clipPath>
  </defs>
  <g id="Groupe_607" data-name="Groupe 607" clip-path="url(#clip-path)">
    <path id="Tracé_158" data-name="Tracé 158" d="M16.5,0A16.5,16.5,0,1,0,33,16.5,16.519,16.519,0,0,0,16.5,0m0,30A13.5,13.5,0,1,1,30,16.5,13.515,13.515,0,0,1,16.5,30" fill="#8d88ff"/>
    <path id="Tracé_159" data-name="Tracé 159" d="M16.5,6.5A1.5,1.5,0,0,0,15,8V20a1.5,1.5,0,0,0,3,0V8a1.5,1.5,0,0,0-1.5-1.5" fill="#8d88ff"/>
    <path id="Tracé_160" data-name="Tracé 160" d="M16.5,23.5A1.5,1.5,0,1,0,18,25a1.5,1.5,0,0,0-1.5-1.5" fill="#8d88ff"/>
  </g>
</svg>
