<svg id="Alimentation" xmlns="http://www.w3.org/2000/svg" xmlns:xlink="http://www.w3.org/1999/xlink" width="30" height="30" viewBox="0 0 30 30">
  <defs>
    <clipPath id="clip-path">
      <rect id="Rectangle_812" data-name="Rectangle 812" width="30" height="30" fill="none"/>
    </clipPath>
    <clipPath id="clip-path-2">
      <rect id="Rectangle_810" data-name="Rectangle 810" width="30" height="30" fill="#4e0a0a"/>
    </clipPath>
  </defs>
  <g id="Groupe_593" data-name="Groupe 593">
    <g id="Groupe_592" data-name="Groupe 592" clip-path="url(#clip-path)">
      <path id="Tracé_157" data-name="Tracé 157" d="M10.509,18.27a.75.75,0,0,1,1.061-1.061l3.771,3.772L20.4,17.305a5.943,5.943,0,0,0,2.585-6,9.763,9.763,0,0,0,1.956.041,8.921,8.921,0,0,0,4.674-1.728.836.836,0,0,0-.128-1.478,8.633,8.633,0,0,0-3.9-.911,8.626,8.626,0,0,0,1.812-3.576.835.835,0,0,0-1.049-1.049A8.641,8.641,0,0,0,22.766,4.42a8.613,8.613,0,0,0-.911-3.9.835.835,0,0,0-1.477-.13,8.942,8.942,0,0,0-1.729,4.675,9.839,9.839,0,0,0,.041,1.956,5.943,5.943,0,0,0-6,2.584l-.874,1.2,3.687,3.687a.75.75,0,0,1-1.06,1.061l-3.52-3.52-5.6,7.706,2.468,2.468a.75.75,0,1,1-1.06,1.06l-2.3-2.3-.051.071L.445,26.451a2.221,2.221,0,0,0,3.1,3.1l5.415-3.936,5.15-3.744Z" fill="#fff"/>
    </g>
  </g>
</svg>
