<svg id="Projet" xmlns="http://www.w3.org/2000/svg" xmlns:xlink="http://www.w3.org/1999/xlink" width="30" height="30" viewBox="0 0 30 30">
  <defs>
    <clipPath id="clip-path">
      <rect id="Rectangle_797" data-name="Rectangle 797" width="30" height="30" fill="#fff"/>
    </clipPath>
  </defs>
  <g id="Groupe_566" data-name="Groupe 566" clip-path="url(#clip-path)">
    <path id="Tracé_139" data-name="Tracé 139" d="M30,29.18a1.141,1.141,0,0,1-1.558.755,28.56,28.56,0,0,0-7.909-.63c-1.037.073-2.066.252-3.1.383.131-.113.279-.25.438-.374a9.756,9.756,0,0,1,4.337-1.894,29.363,29.363,0,0,1,3.164-.342,2.816,2.816,0,0,0,2.5-1.528,2.889,2.889,0,0,0,.279-1.39c0-4.174,0-14.219,0-18.393V5.4c1.041-.128,1.492-.046,1.855.766Z" fill="#fff"/>
    <path id="Tracé_140" data-name="Tracé 140" d="M14.154,28.857c-.425-.35-.811-.7-1.229-1.006A12.34,12.34,0,0,0,7.1,25.634c-.772-.1-1.553-.143-2.332-.181-.844-.04-1.253-.428-1.253-1.248V1.222C3.518.375,3.97-.024,4.838,0a15.025,15.025,0,0,1,4.37.706,8.7,8.7,0,0,1,4.7,3.456,1.5,1.5,0,0,1,.253.771c.014,5.406.011,18.408.01,23.813a.861.861,0,0,1-.017.11" fill="#fff"/>
    <path id="Tracé_141" data-name="Tracé 141" d="M15.828,28.907V28.5c0-5.148.016-17.892-.015-23.039a2.825,2.825,0,0,1,.725-1.923,9.424,9.424,0,0,1,5.688-3.2A27.463,27.463,0,0,1,25.305,0a1.046,1.046,0,0,1,1.176,1.126c0,2.054,0,4.854,0,6.908V24.171c0,.864-.4,1.263-1.278,1.279a15.52,15.52,0,0,0-6.167,1.259,10.349,10.349,0,0,0-2.917,1.932c-.078.073-.157.142-.293.266" fill="#fff"/>
    <path id="Tracé_142" data-name="Tracé 142" d="M1.855,5.358v.394c0,4.184,0,14.239,0,18.423a2.745,2.745,0,0,0,1.079,2.332,2.865,2.865,0,0,0,1.744.563,15.893,15.893,0,0,1,3.622.45,10,10,0,0,1,4.073,1.989c.059.05.116.1.173.154a.467.467,0,0,1,.052.088c-.237-.049-.446-.094-.653-.133s-.423-.075-.635-.109a20.963,20.963,0,0,0-5.514-.167c-1.463.154-2.915.4-4.367.633A1.1,1.1,0,0,1,0,28.834C0,23.351,0,12,0,6.514A1.067,1.067,0,0,1,1.184,5.358c.211,0,.425,0,.671,0" fill="#fff"/>
  </g>
</svg>
