<svg id="Sport" xmlns="http://www.w3.org/2000/svg" xmlns:xlink="http://www.w3.org/1999/xlink" width="30" height="30" viewBox="0 0 30 30">
  <defs>
    <clipPath id="clip-path">
      <rect id="Rectangle_799" data-name="Rectangle 799" width="30" height="30" fill="#fff"/>
    </clipPath>
  </defs>
  <g id="Groupe_569" data-name="Groupe 569" clip-path="url(#clip-path)">
    <path id="Tracé_144" data-name="Tracé 144" d="M30,6.268a8.7,8.7,0,0,1-.351.89.479.479,0,0,1-.838.125q-3.054-3.047-6.1-6.1A.474.474,0,0,1,22.823.36a8.876,8.876,0,0,1,.85-.36h.761a3.622,3.622,0,0,1,1.8,1.177Q27.5,2.482,28.8,3.744A3.685,3.685,0,0,1,30,5.565Z" fill="#fff"/>
    <path id="Tracé_145" data-name="Tracé 145" d="M29.91,11.445a2.153,2.153,0,0,1-.61,1.483c-.753.778-1.5,1.559-2.3,2.3a2.361,2.361,0,0,1-3.366-.144q-2.087-2.075-4.162-4.159Q17.2,8.644,14.92,6.366a2.359,2.359,0,0,1-.55-2.759,2.979,2.979,0,0,1,.539-.756c.648-.676,1.316-1.333,1.983-1.992a2.389,2.389,0,0,1,3.542.007q4.354,4.341,8.7,8.691a2.546,2.546,0,0,1,.778,1.888" fill="#fff"/>
    <path id="Tracé_146" data-name="Tracé 146" d="M11.469,29.9a2.573,2.573,0,0,1-1.926-.8q-2.9-2.915-5.815-5.818Q2.32,21.878.913,20.47A2.4,2.4,0,0,1,.9,16.845q.941-.943,1.884-1.884a2.4,2.4,0,0,1,3.625-.008q4.308,4.3,8.612,8.611a2.407,2.407,0,0,1,.009,3.647c-.647.649-1.3,1.3-1.945,1.946a2.336,2.336,0,0,1-1.62.746" fill="#fff"/>
    <path id="Tracé_147" data-name="Tracé 147" d="M9.758,15.925a3.127,3.127,0,0,1,.389-.684q2.53-2.562,5.088-5.1a.936.936,0,0,1,1.4.008q1.611,1.6,3.209,3.209a.936.936,0,0,1,0,1.406q-2.527,2.542-5.071,5.072a.943.943,0,0,1-1.428-.01c-1.065-1.06-2.133-2.118-3.182-3.194a3.464,3.464,0,0,1-.413-.71" fill="#fff"/>
    <path id="Tracé_148" data-name="Tracé 148" d="M6.161,30A2.532,2.532,0,0,1,4.3,29.326C3.081,28.124,1.868,26.921.672,25.7a2.335,2.335,0,0,1-.326-2.863.491.491,0,0,1,.862-.118q3.038,3.03,6.068,6.067c.313.314.277.666-.12.855a8.511,8.511,0,0,1-1,.358" fill="#fff"/>
  </g>
</svg>
