<svg id="oeil_tel" xmlns="http://www.w3.org/2000/svg" width="27.231" height="17.165" viewBox="0 0 27.231 17.165">
  <path id="Soustraction_1" data-name="Soustraction 1" d="M11.134,12.714a12.32,12.32,0,0,1-6.279-1.726A15.137,15.137,0,0,1,0,6.357,15.135,15.135,0,0,1,4.855,1.726a12.287,12.287,0,0,1,12.558,0,15.138,15.138,0,0,1,4.855,4.631,15.133,15.133,0,0,1-4.855,4.631A12.323,12.323,0,0,1,11.134,12.714Zm-.2-11.488A5.266,5.266,0,0,0,5.625,6.434a5.312,5.312,0,0,0,10.623,0A5.266,5.266,0,0,0,10.936,1.226Z" transform="translate(2 2)" fill="#8d88ff"/>
  <rect id="Rectangle_186" data-name="Rectangle 186" width="30" height="2.5" transform="translate(0 15) rotate(-30)" fill="#8d88ff"/>
</svg>
