<svg xmlns="http://www.w3.org/2000/svg" width="22" height="22" viewBox="0 0 22 22">
  <g id="Groupe_122" data-name="Groupe 122" transform="translate(-112 -361)">
    <g id="Tracé_8" data-name="Tracé 8" transform="translate(112 361)" fill="none">
      <path d="M5,0H17a5,5,0,0,1,5,5V17a5,5,0,0,1-5,5H5a5,5,0,0,1-5-5V5A5,5,0,0,1,5,0Z" stroke="none"/>
      <path d="M 5 2 C 3.345790863037109 2 2 3.345790863037109 2 5 L 2 17 C 2 18.65420913696289 3.345790863037109 20 5 20 L 17 20 C 18.65420913696289 20 20 18.65420913696289 20 17 L 20 5 C 20 3.345790863037109 18.65420913696289 2 17 2 L 5 2 M 5 0 L 17 0 C 19.76141929626465 0 22 2.238580703735352 22 5 L 22 17 C 22 19.76141929626465 19.76141929626465 22 17 22 L 5 22 C 2.238580703735352 22 0 19.76141929626465 0 17 L 0 5 C 0 2.238580703735352 2.238580703735352 0 5 0 Z" stroke="none" fill="#8d88ff"/>
    </g>
  </g>
</svg>
