<svg id="Détente" xmlns="http://www.w3.org/2000/svg" xmlns:xlink="http://www.w3.org/1999/xlink" width="30" height="30" viewBox="0 0 30 30">
  <defs>
    <clipPath id="clip-path">
      <rect id="Rectangle_795" data-name="Rectangle 795" width="30" height="30" fill="#fff"/>
    </clipPath>
  </defs>
  <g id="Groupe_564" data-name="Groupe 564" clip-path="url(#clip-path)">
    <path id="Tracé_136" data-name="Tracé 136" d="M29.927,17.792a3.3,3.3,0,0,0-2.54-2.53,3.249,3.249,0,0,0-2.67.6,2.129,2.129,0,0,1-1.279.46H23V10a3,3,0,0,0-3-3H13.73v-.51a2.15,2.15,0,0,1,.45-1.26,3.276,3.276,0,0,0,.63-1.93,3.312,3.312,0,0,0-6.55-.69,3.249,3.249,0,0,0,.6,2.67,2.13,2.13,0,0,1,.46,1.28V7H3a3,3,0,0,0-3,3V27a3,3,0,0,0,3,3H9.32v-.44a2.13,2.13,0,0,0-.46-1.28,3.249,3.249,0,0,1-.6-2.67,3.31,3.31,0,1,1,5.92,2.62,2.15,2.15,0,0,0-.45,1.26V30H20a3,3,0,0,0,3-3V20.732h.51a2.15,2.15,0,0,1,1.259.45,3.276,3.276,0,0,0,1.93.63,3.316,3.316,0,0,0,3.23-4.02" fill="#fff"/>
  </g>
</svg>
