<svg id="Sommeil" xmlns="http://www.w3.org/2000/svg" xmlns:xlink="http://www.w3.org/1999/xlink" width="30" height="30" viewBox="0 0 30 30">
  <defs>
    <clipPath id="clip-path">
      <rect id="Rectangle_796" data-name="Rectangle 796" width="30" height="30" fill="#fff"/>
    </clipPath>
  </defs>
  <g id="Groupe_565" data-name="Groupe 565" clip-path="url(#clip-path)">
    <path id="Tracé_137" data-name="Tracé 137" d="M27,14.242H3a3,3,0,0,0-3,3V28.5a1.5,1.5,0,0,0,3,0V27.16H27V28.5a1.5,1.5,0,0,0,3,0V17.242a3,3,0,0,0-3-3" fill="#fff"/>
    <path id="Tracé_138" data-name="Tracé 138" d="M4.968,10.554v-1a3,3,0,0,1,3-3h3a3,3,0,0,1,3,3v1a2.982,2.982,0,0,1-.045.446h2.153a2.982,2.982,0,0,1-.045-.446v-1a3,3,0,0,1,3-3h3a3,3,0,0,1,3,3v1a2.982,2.982,0,0,1-.045.446H27.5V3a3,3,0,0,0-3-3H5.5a3,3,0,0,0-3,3v8H5.013a2.982,2.982,0,0,1-.045-.446" fill="#fff"/>
  </g>
</svg>
