<svg id="logo" xmlns="http://www.w3.org/2000/svg" xmlns:xlink="http://www.w3.org/1999/xlink" width="40" height="40" viewBox="0 0 40 40">
  <defs>
    <clipPath id="clip-path">
      <rect id="Rectangle_858" data-name="Rectangle 858" width="40" height="40" fill="none"/>
    </clipPath>
    <clipPath id="clip-path-3">
      <rect id="Rectangle_856" data-name="Rectangle 856" width="16.216" height="16.216" fill="none"/>
    </clipPath>
  </defs>
  <g id="Groupe_630" data-name="Groupe 630" clip-path="url(#clip-path)">
    <g id="Groupe_629" data-name="Groupe 629">
      <g id="Groupe_628" data-name="Groupe 628" clip-path="url(#clip-path)">
        <path id="Tracé_171" data-name="Tracé 171" d="M34.254,39.239a2.168,2.168,0,0,0-2.168,2.168V55.138a2.168,2.168,0,0,0,4.337,0V41.407a2.168,2.168,0,0,0-2.169-2.168" transform="translate(-14.742 -18.029)" fill="#fff"/>
        <path id="Tracé_172" data-name="Tracé 172" d="M55.4,48.272,60,42.8a2.167,2.167,0,0,0-3.322-2.784L52.569,44.9l-4.108-4.891A2.167,2.167,0,0,0,45.14,42.8l4.6,5.476-4.6,5.476a2.167,2.167,0,0,0,3.322,2.784l4.108-4.891,4.109,4.891A2.167,2.167,0,0,0,60,53.748Z" transform="translate(-20.507 -18.029)" fill="#fff"/>
        <path id="Tracé_173" data-name="Tracé 173" d="M6.015,42.585c1.655-.17,4.763.746,5.185.834a3.628,3.628,0,0,0,.451.063,2.5,2.5,0,0,0,2.628-1.11,1.943,1.943,0,0,0,.156-.873c0-.032-.006-.065-.009-.1s-.011-.079-.019-.119A2.545,2.545,0,0,0,13.8,40.03a5.215,5.215,0,0,0-2.151-1.288c-.154-.057-.31-.108-.466-.16A11.26,11.26,0,0,0,8.19,37.93a10.087,10.087,0,0,0-1.1-.022c-.291.006-.582.022-.871.056A8.213,8.213,0,0,0,4.6,38.33c-.067.022-.134.045-.2.068-.082.029-.164.056-.245.089a6.935,6.935,0,0,0-2.1,1.265A5.48,5.48,0,0,0,.436,45.709a6.731,6.731,0,0,0,3.44,3.267c1.455.706,3.031,1.124,4.518,1.761a2.19,2.19,0,0,1,.845.583,1.174,1.174,0,0,1,.084.149,1.67,1.67,0,0,1,.094.265.654.654,0,0,1,0,.163c-.059.457-.545.716-1,.836-1.655.17-4.762-.746-5.185-.834a3.53,3.53,0,0,0-.451-.063A2.5,2.5,0,0,0,.16,52.944,1.945,1.945,0,0,0,0,53.818c0,.032.006.064.009.1s.011.079.019.118a2.539,2.539,0,0,0,.606,1.252,5.205,5.205,0,0,0,2.15,1.288c.154.056.31.108.466.16a11.268,11.268,0,0,0,3,.652,10.224,10.224,0,0,0,1.1.022c.291-.006.582-.022.871-.056a8.252,8.252,0,0,0,1.622-.366c.067-.022.134-.045.2-.068.082-.03.165-.057.246-.089a6.937,6.937,0,0,0,2.1-1.265A5.479,5.479,0,0,0,14,49.608a6.73,6.73,0,0,0-3.439-3.267c-1.455-.707-3.032-1.124-4.519-1.761A2.2,2.2,0,0,1,5.2,44a1.18,1.18,0,0,1-.084-.149,1.67,1.67,0,0,1-.094-.265.675.675,0,0,1,0-.162c.059-.458.546-.716,1-.836" transform="translate(0 -17.414)" fill="#fff"/>
        <g id="Groupe_627" data-name="Groupe 627" transform="translate(11.404)" opacity="0.997" style="mix-blend-mode: normal;isolation: isolate">
          <g id="Groupe_626" data-name="Groupe 626">
            <g id="Groupe_625" data-name="Groupe 625" clip-path="url(#clip-path-3)">
              <path id="Tracé_174" data-name="Tracé 174" d="M29.205,16.216A8.108,8.108,0,1,0,21.1,8.108a8.108,8.108,0,0,0,8.108,8.108" transform="translate(-21.097)" fill="#1cb5da"/>
            </g>
          </g>
        </g>
      </g>
    </g>
  </g>
</svg>
